<?xml version="1.0" standalone="no"?>
<!DOCTYPE svg PUBLIC "-//W3C//DTD SVG 20010904//EN"
 "http://www.w3.org/TR/2001/REC-SVG-20010904/DTD/svg10.dtd">
<svg version="1.0" xmlns="http://www.w3.org/2000/svg"
 width="32.000000pt" height="32.000000pt" viewBox="0 0 32.000000 32.000000"
 preserveAspectRatio="xMidYMid meet">

<g transform="translate(0.000000,32.000000) scale(0.100000,-0.100000)"
fill="#000000" stroke="none">
<path d="M92 280 c-18 -11 -41 -34 -50 -50 -9 -16 -23 -30 -29 -30 -8 0 -13
-15 -13 -40 0 -25 5 -40 13 -40 6 0 20 -14 29 -30 22 -39 74 -70 118 -70 44 0
96 31 118 70 9 16 23 30 30 30 7 0 12 15 12 40 0 25 -5 40 -12 40 -7 0 -21 14
-30 30 -37 65 -123 88 -186 50z m124 -29 c17 -10 37 -33 44 -51 13 -31 12 -34
-9 -52 -13 -10 -41 -21 -62 -24 -22 -4 -39 -10 -39 -14 0 -17 15 -17 57 1 51
22 60 20 44 -10 -13 -24 -61 -51 -91 -51 -53 0 -110 57 -110 110 0 33 28 78
58 94 37 21 71 20 108 -3z"/>
<path d="M94 205 c-4 -9 -2 -21 4 -27 16 -16 47 -5 47 17 0 26 -42 34 -51 10z"/>
<path d="M174 205 c-4 -9 -2 -21 4 -27 16 -16 47 -5 47 17 0 26 -42 34 -51 10z"/>
</g>
</svg>
