<?xml version="1.0" encoding="utf-8"?>
<!-- Generator: Adobe Illustrator 25.3.0, SVG Export Plug-In . SVG Version: 6.00 Build 0)  -->
<svg version="1.1" id="Capa_1" xmlns="http://www.w3.org/2000/svg" xmlns:xlink="http://www.w3.org/1999/xlink" x="0px" y="0px"
	 viewBox="0 0 24 24" style="enable-background:new 0 0 24 24;" xml:space="preserve">
<style type="text/css">.st0{fill:#343741;}</style>
<g>
	<path class="st0" d="M12,9C9.8,9,8,7.2,8,5s1.8-4,4-4c2.2,0,4,1.8,4,4S14.2,9,12,9z M12,3c-1.1,0-2,0.9-2,2s0.9,2,2,2
		c1.1,0,2-0.9,2-2S13.1,3,12,3z"/>
</g>
<g>
	<path class="st0" d="M12,23c-0.6,0-1-0.4-1-1V8c0-0.6,0.4-1,1-1c0.6,0,1,0.4,1,1v14C13,22.6,12.6,23,12,23z"/>
</g>
<g>
	<path class="st0" d="M12,23C5.9,23,1,18.1,1,12c0-0.6,0.4-1,1-1h3c0.6,0,1,0.4,1,1c0,0.6-0.4,1-1,1H3.1c0.5,4.5,4.3,8,8.9,8
		c4.6,0,8.4-3.5,8.9-8H19c-0.6,0-1-0.4-1-1c0-0.6,0.4-1,1-1h3c0.6,0,1,0.4,1,1C23,18.1,18.1,23,12,23z"/>
</g>
<g>
	<path class="st0" d="M23,24c-0.3,0-0.5-0.1-0.7-0.3l-22-22c-0.4-0.4-0.4-1,0-1.4s1-0.4,1.4,0l22,22c0.4,0.4,0.4,1,0,1.4
		C23.5,23.9,23.3,24,23,24z"/>
</g>
</svg>
